<svg xmlns="http://www.w3.org/2000/svg" version="1.0" width="486.000000pt" height="486.000000pt" viewBox="0 0 486.000000 486.000000" preserveAspectRatio="xMidYMid meet">

<g transform="translate(0.000000,486.000000) scale(0.100000,-0.100000)" fill="#000000" stroke="none">
<path d="M2125 4754 c-691 -97 -1302 -493 -1677 -1091 -156 -248 -271 -554 -324 -863 -22 -129 -30 -447 -15 -596 110 -1094 946 -1957 2034 -2099 68 -8 194 -15 297 -15 284 0 498 34 755 121 418 141 792 401 1070 744 271 334 445 742 506 1185 19 134 16 447 -5 595 -75 531 -300 982 -675 1355 -75 74 -179 167 -232 207 -304 228 -646 377 -1019 443 -166 30 -547 37 -715 14z m589 -1472 c8 -15 29 -42 48 -59 29 -28 45 -34 113 -44 205 -28 457 -90 634 -156 86 -32 161 -66 106 -48 -128 42 -433 99 -640 119 -134 14 -141 13 -171 -5 -43 -26 -85 -84 -105 -143 l-17 -48 -12 38 c-19 61 -48 102 -97 139 l-46 35 -127 0 c-438 0 -953 -106 -1288 -266 -98 -46 -129 -56 -220 -68 -59 -9 -145 -22 -192 -31 -150 -27 -160 -28 -160 -18 0 12 63 71 124 118 286 214 1002 365 1733 365 l203 0 30 42 c17 23 36 62 42 87 l12 46 8 -38 c4 -21 14 -50 22 -65z m1122 -405 c32 -13 95 -43 139 -65 l80 -42 -55 6 c-45 5 -71 17 -144 65 -49 33 -87 59 -85 59 3 0 32 -11 65 -23z m-1711 -61 c56 -24 64 -52 71 -255 l7 -182 -84 3 -84 3 -3 48 c-4 65 -27 58 -27 -9 l0 -49 -81 -3 -82 -3 -6 73 c-11 135 -10 302 2 325 17 31 48 46 107 54 87 11 145 9 180 -5z m267 -53 c2 -38 8 -68 13 -68 6 0 11 30 13 68 l3 67 84 0 85 0 0 -36 c0 -20 -10 -69 -21 -110 l-22 -73 22 -79 c13 -43 21 -93 19 -112 l-3 -35 -80 0 -80 0 -5 68 c-3 37 -9 67 -15 67 -5 0 -12 -30 -15 -67 l-5 -68 -80 0 -80 0 -3 223 -2 222 84 0 85 0 3 -67z m336 -70 l-3 -138 -52 -3 -53 -3 0 140 0 141 55 0 56 0 -3 -137z m199 129 c8 -5 9 -42 3 -137 -4 -72 -4 -134 1 -139 14 -15 19 12 27 144 l7 125 40 3 c22 2 60 1 84 -3 l43 -7 -3 -131 c-5 -172 13 -183 24 -15 4 68 10 129 12 137 4 11 21 13 82 7 42 -3 78 -8 80 -10 2 -2 -2 -102 -9 -222 l-13 -219 -105 3 c-161 5 -160 4 -160 63 0 27 -4 49 -9 49 -11 0 -21 -35 -21 -74 l0 -28 -127 7 c-71 4 -130 11 -133 16 -3 4 0 99 7 211 6 112 12 209 12 216 1 13 137 18 158 4z m-1143 -28 c3 -9 6 -37 6 -64 l0 -48 -42 -6 c-24 -3 -85 -8 -135 -12 -73 -5 -93 -10 -93 -21 0 -16 4 -16 192 3 54 6 57 5 63 -19 4 -13 5 -41 3 -63 l-3 -39 -119 -10 c-83 -7 -121 -14 -124 -23 -3 -11 15 -12 94 -5 55 4 117 8 139 8 l40 0 9 -58 c5 -34 5 -62 0 -66 -9 -8 -433 -45 -440 -39 -6 7 -40 429 -34 438 5 8 284 36 386 39 39 1 53 -3 58 -15z m1879 -41 c59 -35 62 -55 42 -253 -9 -96 -19 -179 -22 -183 -5 -8 -87 -2 -141 9 -21 4 -23 10 -21 51 4 61 -16 68 -25 9 -4 -25 -11 -48 -15 -51 -13 -7 -140 10 -150 21 -6 5 -1 80 10 179 10 94 19 173 19 176 0 4 14 22 30 39 l31 33 105 -6 c76 -4 114 -11 137 -24z m-2340 -201 c16 -118 26 -216 22 -220 -3 -3 -76 -16 -161 -27 -140 -19 -156 -20 -163 -6 -5 9 -15 64 -22 123 -7 60 -16 113 -20 120 -19 31 -21 -11 -5 -128 9 -70 15 -129 12 -131 -10 -10 -148 -25 -156 -17 -11 11 -62 377 -58 413 3 26 5 26 158 47 85 11 158 18 163 14 4 -4 15 -62 24 -131 15 -117 25 -151 39 -137 3 4 -2 65 -12 137 -9 72 -14 134 -10 138 9 10 85 21 126 19 l35 -1 28 -213z m2593 178 l21 -8 -19 -132 c-18 -126 -18 -186 1 -150 5 8 16 75 26 148 l18 132 31 -1 c40 0 125 -14 132 -21 3 -3 -2 -59 -12 -124 -14 -98 -24 -136 -60 -211 -39 -85 -45 -93 -71 -93 -49 1 -204 27 -213 36 -5 5 -15 51 -21 102 -10 75 -10 114 0 195 19 160 13 150 85 142 33 -4 70 -11 82 -15z m-3178 -97 c6 -32 7 -61 4 -64 -4 -4 -64 -17 -134 -29 -94 -17 -128 -27 -128 -38 0 -10 7 -12 23 -9 12 3 57 11 99 18 69 11 82 11 113 -4 41 -19 60 -57 71 -134 8 -62 -13 -107 -59 -128 -43 -19 -349 -77 -359 -67 -4 4 -10 33 -14 64 l-7 57 39 7 c171 31 218 42 222 52 5 16 -9 15 -106 -3 -71 -14 -85 -14 -116 -1 -44 19 -64 50 -78 123 -9 48 -8 65 3 88 24 49 57 64 214 94 213 41 201 43 213 -26z m3657 20 c110 -20 203 -39 208 -43 8 -7 -9 -110 -21 -122 -4 -4 -66 3 -137 17 -72 14 -131 25 -132 25 -2 0 -3 -6 -3 -14 0 -9 36 -20 120 -36 66 -12 122 -25 124 -28 2 -4 -1 -31 -6 -60 -13 -61 -8 -61 -153 -33 -54 11 -103 17 -107 15 -20 -13 10 -23 124 -44 68 -12 127 -26 131 -30 11 -10 -2 -94 -17 -114 -10 -13 -37 -10 -220 25 -115 21 -212 41 -214 44 -4 4 63 389 73 423 6 17 5 17 230 -25z m-327 -447 c15 -8 62 -19 105 -26 42 -7 77 -16 77 -20 0 -18 -124 -120 -196 -163 -323 -188 -986 -317 -1631 -317 l-181 0 -46 -51 c-27 -30 -52 -70 -60 -98 -11 -37 -15 -42 -21 -26 -35 102 -90 164 -172 195 -30 11 -60 20 -68 20 -39 0 -325 63 -430 95 -117 36 -269 94 -263 101 2 1 52 -10 111 -26 171 -46 402 -82 664 -104 61 -5 62 -5 93 30 17 20 37 50 45 68 7 17 18 42 23 56 11 25 11 25 11 2 1 -29 32 -90 66 -131 l27 -31 101 0 c193 0 548 40 777 86 363 74 617 168 782 287 53 38 89 57 115 60 21 2 39 4 41 5 2 1 15 -4 30 -12z m-3238 -62 c30 -30 89 -78 130 -106 41 -27 64 -47 50 -43 -36 9 -281 131 -309 153 l-24 19 44 16 c24 8 46 16 49 16 3 1 30 -24 60 -55z"/>
<path d="M2000 2655 c0 -19 5 -35 10 -35 6 0 10 16 10 35 0 19 -4 35 -10 35 -5 0 -10 -16 -10 -35z"/>
<path d="M3520 2605 c0 -19 4 -35 10 -35 12 0 24 45 15 59 -13 22 -25 10 -25 -24z"/>
<g xmlns="http://www.w3.org/2000/svg" transform="translate(0.000000,486.000000) scale(0.100000,-0.100000)" fill="#000000" stroke="none">
<path d="M2125 4754 c-691 -97 -1302 -493 -1677 -1091 -156 -248 -271 -554 -324 -863 -22 -129 -30 -447 -15 -596 110 -1094 946 -1957 2034 -2099 68 -8 194 -15 297 -15 284 0 498 34 755 121 418 141 792 401 1070 744 271 334 445 742 506 1185 19 134 16 447 -5 595 -75 531 -300 982 -675 1355 -75 74 -179 167 -232 207 -304 228 -646 377 -1019 443 -166 30 -547 37 -715 14z m589 -1472 c8 -15 29 -42 48 -59 29 -28 45 -34 113 -44 205 -28 457 -90 634 -156 86 -32 161 -66 106 -48 -128 42 -433 99 -640 119 -134 14 -141 13 -171 -5 -43 -26 -85 -84 -105 -143 l-17 -48 -12 38 c-19 61 -48 102 -97 139 l-46 35 -127 0 c-438 0 -953 -106 -1288 -266 -98 -46 -129 -56 -220 -68 -59 -9 -145 -22 -192 -31 -150 -27 -160 -28 -160 -18 0 12 63 71 124 118 286 214 1002 365 1733 365 l203 0 30 42 c17 23 36 62 42 87 l12 46 8 -38 c4 -21 14 -50 22 -65z m1122 -405 c32 -13 95 -43 139 -65 l80 -42 -55 6 c-45 5 -71 17 -144 65 -49 33 -87 59 -85 59 3 0 32 -11 65 -23z m-1711 -61 c56 -24 64 -52 71 -255 l7 -182 -84 3 -84 3 -3 48 c-4 65 -27 58 -27 -9 l0 -49 -81 -3 -82 -3 -6 73 c-11 135 -10 302 2 325 17 31 48 46 107 54 87 11 145 9 180 -5z m267 -53 c2 -38 8 -68 13 -68 6 0 11 30 13 68 l3 67 84 0 85 0 0 -36 c0 -20 -10 -69 -21 -110 l-22 -73 22 -79 c13 -43 21 -93 19 -112 l-3 -35 -80 0 -80 0 -5 68 c-3 37 -9 67 -15 67 -5 0 -12 -30 -15 -67 l-5 -68 -80 0 -80 0 -3 223 -2 222 84 0 85 0 3 -67z m336 -70 l-3 -138 -52 -3 -53 -3 0 140 0 141 55 0 56 0 -3 -137z m199 129 c8 -5 9 -42 3 -137 -4 -72 -4 -134 1 -139 14 -15 19 12 27 144 l7 125 40 3 c22 2 60 1 84 -3 l43 -7 -3 -131 c-5 -172 13 -183 24 -15 4 68 10 129 12 137 4 11 21 13 82 7 42 -3 78 -8 80 -10 2 -2 -2 -102 -9 -222 l-13 -219 -105 3 c-161 5 -160 4 -160 63 0 27 -4 49 -9 49 -11 0 -21 -35 -21 -74 l0 -28 -127 7 c-71 4 -130 11 -133 16 -3 4 0 99 7 211 6 112 12 209 12 216 1 13 137 18 158 4z m-1143 -28 c3 -9 6 -37 6 -64 l0 -48 -42 -6 c-24 -3 -85 -8 -135 -12 -73 -5 -93 -10 -93 -21 0 -16 4 -16 192 3 54 6 57 5 63 -19 4 -13 5 -41 3 -63 l-3 -39 -119 -10 c-83 -7 -121 -14 -124 -23 -3 -11 15 -12 94 -5 55 4 117 8 139 8 l40 0 9 -58 c5 -34 5 -62 0 -66 -9 -8 -433 -45 -440 -39 -6 7 -40 429 -34 438 5 8 284 36 386 39 39 1 53 -3 58 -15z m1879 -41 c59 -35 62 -55 42 -253 -9 -96 -19 -179 -22 -183 -5 -8 -87 -2 -141 9 -21 4 -23 10 -21 51 4 61 -16 68 -25 9 -4 -25 -11 -48 -15 -51 -13 -7 -140 10 -150 21 -6 5 -1 80 10 179 10 94 19 173 19 176 0 4 14 22 30 39 l31 33 105 -6 c76 -4 114 -11 137 -24z m-2340 -201 c16 -118 26 -216 22 -220 -3 -3 -76 -16 -161 -27 -140 -19 -156 -20 -163 -6 -5 9 -15 64 -22 123 -7 60 -16 113 -20 120 -19 31 -21 -11 -5 -128 9 -70 15 -129 12 -131 -10 -10 -148 -25 -156 -17 -11 11 -62 377 -58 413 3 26 5 26 158 47 85 11 158 18 163 14 4 -4 15 -62 24 -131 15 -117 25 -151 39 -137 3 4 -2 65 -12 137 -9 72 -14 134 -10 138 9 10 85 21 126 19 l35 -1 28 -213z m2593 178 l21 -8 -19 -132 c-18 -126 -18 -186 1 -150 5 8 16 75 26 148 l18 132 31 -1 c40 0 125 -14 132 -21 3 -3 -2 -59 -12 -124 -14 -98 -24 -136 -60 -211 -39 -85 -45 -93 -71 -93 -49 1 -204 27 -213 36 -5 5 -15 51 -21 102 -10 75 -10 114 0 195 19 160 13 150 85 142 33 -4 70 -11 82 -15z m-3178 -97 c6 -32 7 -61 4 -64 -4 -4 -64 -17 -134 -29 -94 -17 -128 -27 -128 -38 0 -10 7 -12 23 -9 12 3 57 11 99 18 69 11 82 11 113 -4 41 -19 60 -57 71 -134 8 -62 -13 -107 -59 -128 -43 -19 -349 -77 -359 -67 -4 4 -10 33 -14 64 l-7 57 39 7 c171 31 218 42 222 52 5 16 -9 15 -106 -3 -71 -14 -85 -14 -116 -1 -44 19 -64 50 -78 123 -9 48 -8 65 3 88 24 49 57 64 214 94 213 41 201 43 213 -26z m3657 20 c110 -20 203 -39 208 -43 8 -7 -9 -110 -21 -122 -4 -4 -66 3 -137 17 -72 14 -131 25 -132 25 -2 0 -3 -6 -3 -14 0 -9 36 -20 120 -36 66 -12 122 -25 124 -28 2 -4 -1 -31 -6 -60 -13 -61 -8 -61 -153 -33 -54 11 -103 17 -107 15 -20 -13 10 -23 124 -44 68 -12 127 -26 131 -30 11 -10 -2 -94 -17 -114 -10 -13 -37 -10 -220 25 -115 21 -212 41 -214 44 -4 4 63 389 73 423 6 17 5 17 230 -25z m-327 -447 c15 -8 62 -19 105 -26 42 -7 77 -16 77 -20 0 -18 -124 -120 -196 -163 -323 -188 -986 -317 -1631 -317 l-181 0 -46 -51 c-27 -30 -52 -70 -60 -98 -11 -37 -15 -42 -21 -26 -35 102 -90 164 -172 195 -30 11 -60 20 -68 20 -39 0 -325 63 -430 95 -117 36 -269 94 -263 101 2 1 52 -10 111 -26 171 -46 402 -82 664 -104 61 -5 62 -5 93 30 17 20 37 50 45 68 7 17 18 42 23 56 11 25 11 25 11 2 1 -29 32 -90 66 -131 l27 -31 101 0 c193 0 548 40 777 86 363 74 617 168 782 287 53 38 89 57 115 60 21 2 39 4 41 5 2 1 15 -4 30 -12z m-3238 -62 c30 -30 89 -78 130 -106 41 -27 64 -47 50 -43 -36 9 -281 131 -309 153 l-24 19 44 16 c24 8 46 16 49 16 3 1 30 -24 60 -55z"/>
<path d="M2000 2655 c0 -19 5 -35 10 -35 6 0 10 16 10 35 0 19 -4 35 -10 35 -5 0 -10 -16 -10 -35z"/>
<path d="M3520 2605 c0 -19 4 -35 10 -35 12 0 24 45 15 59 -13 22 -25 10 -25 -24z"/>
</g>
</g>
</svg>